<svg version="1.2" xmlns="http://www.w3.org/2000/svg" viewBox="0 0 24 24" width="20" height="20"><style>.a{fill:#9ca2a7}</style><path fill-rule="evenodd" class="a" d="m24 8h-24v-1c0-2.8 2.2-5 5-5h1v-1c0-0.6 0.4-1 1-1 0.6 0 1 0.4 1 1v1h8v-1c0-0.6 0.4-1 1-1 0.6 0 1 0.4 1 1v1h1c2.8 0 5 2.2 5 5zm-14 16h-5c-2.8 0-5-2.2-5-5v-9h21.7c-1.1 0-2.2 0.4-3 1.3l-2.8 2.7h-9.9c-0.6 0-1 0.4-1 1 0 0.6 0.4 1 1 1h7.9l-2 2c-1.9 0-5.9 0-5.9 0-0.6 0-1 0.4-1 1 0 0.6 0.4 1 1 1h4.5q-0.5 1.2-0.5 2.5zm10.1-11.3c0.9-0.9 2.3-0.9 3.2 0 0.9 0.9 0.9 2.4 0 3.3l-6.8 6.8c-0.8 0.8-1.9 1.2-3 1.2h-1.5v-1.4c0-1.2 0.5-2.3 1.3-3.1z"/></svg>